<?xml version="1.0" encoding="utf-8"?>
<!-- Generator: Adobe Illustrator 25.4.1, SVG Export Plug-In . SVG Version: 6.00 Build 0)  -->
<svg version="1.1"
	 id="svg901" xmlns:cc="http://creativecommons.org/ns#" xmlns:dc="http://purl.org/dc/elements/1.1/" xmlns:inkscape="http://www.inkscape.org/namespaces/inkscape" xmlns:rdf="http://www.w3.org/1999/02/22-rdf-syntax-ns#" xmlns:sodipodi="http://sodipodi.sourceforge.net/DTD/sodipodi-0.dtd" xmlns:svg="http://www.w3.org/2000/svg"
	 xmlns="http://www.w3.org/2000/svg" xmlns:xlink="http://www.w3.org/1999/xlink" x="0px" y="0px" viewBox="0 0 295 111.6"
	 style="enable-background:new 0 0 295 111.6;" xml:space="preserve">
<style type="text/css">
	.st0{fill-rule:evenodd;clip-rule:evenodd;}
	.st1{fill-rule:evenodd;clip-rule:evenodd;stroke:#FFFFFF;stroke-width:2;stroke-miterlimit:10;}
</style>
<sodipodi:namedview  bordercolor="#666666" borderopacity="1" gridtolerance="10" guidetolerance="10" id="namedview903" inkscape:current-layer="svg901" inkscape:cx="37.31392" inkscape:cy="46" inkscape:pagecheckerboard="true" inkscape:pageopacity="0" inkscape:pageshadow="2" inkscape:window-height="702" inkscape:window-maximized="0" inkscape:window-width="1506" inkscape:window-x="70" inkscape:window-y="27" inkscape:zoom="1.4605809" objecttolerance="10" pagecolor="#ffffff" showgrid="false">
	</sodipodi:namedview>
<path id="path893" inkscape:connector-curvature="0" class="st0" d="M97.9,6.4h22.8l-57.7,99.4L5,6.4h23.4l34.7,59.8L97.9,6.4z"/>
<path id="path895" inkscape:connector-curvature="0" class="st1" d="M76.3,5.4H98l-35,60l-34.7-60h21.4L63,28.5L76.3,5.4z"/>
<path id="path897" inkscape:connector-curvature="0" class="st0" d="M134.4,26c0-0.7,0.4-1.3,1.2-1.8c0.8-0.5,1.7-0.7,2.6-0.7
	c1.2,0,2,0.5,2.3,1.4l13,43.6l13-43.6c0.3-0.9,1.1-1.4,2.2-1.4c0.9,0,1.8,0.3,2.6,0.8c0.8,0.5,1.2,1.1,1.2,1.8c0,0,0,0.1,0,0.2
	c0,0.1,0,0.2,0,0.3l-15,48.8c-0.5,1.4-1.9,2.1-3.9,2.1c-2.1,0-3.3-0.7-3.8-2.1l-15.2-48.8C134.4,26.3,134.4,26.1,134.4,26L134.4,26z
	 M173.1,63.6V44.5c0-0.6,0.3-1.1,0.9-1.5c0.6-0.4,1.3-0.7,2.2-0.7c0.8,0,1.5,0.2,2.1,0.7c0.6,0.5,0.9,1,0.9,1.5v19.1
	c0,2.2,0.8,4.2,2.5,5.9s3.7,2.6,6,2.6c2.3,0,4.2-0.9,5.9-2.6s2.5-3.7,2.5-6V44.4c0-0.5,0.3-1,0.9-1.5c0.6-0.4,1.3-0.7,2.2-0.7
	c0.9,0,1.6,0.2,2.2,0.6c0.6,0.4,0.9,0.9,0.9,1.5v19.1c0,3.8-1.4,7.1-4.3,9.9c-2.9,2.8-6.3,4.2-10.3,4.2c-4,0-7.4-1.4-10.3-4.2
	C174.5,70.6,173.1,67.3,173.1,63.6L173.1,63.6z M207.3,63.4v-7.7c0-3.8,1.4-7,4.3-9.8c2.9-2.7,6.4-4.1,10.4-4.1
	c3.8,0,7.2,1.3,10,3.8c2.8,2.6,4.2,5.8,4.2,9.6c0,1.4-0.2,2.6-0.5,3.4c-0.3,0.9-0.9,1.5-1.6,1.8c-0.7,0.4-1.4,0.6-2,0.7
	c-0.6,0.1-1.4,0.1-2.5,0.1h-16.2v2.2c0,2.7,1,4.8,2.9,6.5c1.9,1.6,4.5,2.4,7.6,2.4c1.6,0,3-0.2,4.3-0.7c1.2-0.5,2.2-1,2.9-1.4
	c0.7-0.5,1.3-0.7,1.8-0.7c0.7,0,1.3,0.3,1.8,0.9s0.7,1.2,0.7,1.9c0,1.1-1.1,2.3-3.4,3.4c-2.2,1.2-5,1.8-8.3,1.8
	c-4.8,0-8.8-1.3-11.8-3.9C208.8,71.1,207.3,67.7,207.3,63.4L207.3,63.4z M213.5,57.3h13.7c1.3,0,2.1-0.2,2.6-0.5
	c0.4-0.3,0.7-0.9,0.7-1.9c0-2.2-0.8-4.1-2.4-5.8c-1.6-1.7-3.6-2.5-6-2.5c-2.3,0-4.3,0.8-6,2.3c-1.7,1.5-2.5,3.4-2.5,5.7L213.5,57.3z
	 M239.4,73.7c0-1.1,0.4-2,1.1-2.7c0.7-0.8,1.7-1.1,2.7-1.1c1,0,1.9,0.4,2.7,1.1c0.7,0.8,1.1,1.7,1.1,2.7c0,1-0.4,1.9-1.1,2.7
	c-0.7,0.8-1.6,1.1-2.7,1.1c-1.1,0-2-0.4-2.7-1.1C239.7,75.6,239.4,74.7,239.4,73.7z M244.8,91.2c0-0.8,0.2-1.4,0.7-1.9
	c0.5-0.5,1.1-0.8,1.8-0.8c1.9,0,3.2-0.7,3.8-2.1c0.6-1.4,0.9-3.5,0.9-6.4V44.4c0-0.6,0.3-1.1,0.9-1.5c0.6-0.4,1.3-0.6,2.2-0.6
	s1.6,0.2,2.2,0.6c0.6,0.4,0.9,0.9,0.9,1.5V80c0,4.3-0.8,7.6-2.5,10.1c-1.7,2.5-4.2,3.7-7.6,3.7C245.9,93.8,244.8,93,244.8,91.2
	L244.8,91.2z M251.2,29.2c0-0.9,0.4-1.7,1.1-2.4c0.7-0.7,1.7-1,2.7-1c1,0,1.9,0.3,2.7,1c0.7,0.7,1.1,1.5,1.1,2.4
	c0,0.9-0.4,1.7-1.1,2.5c-0.7,0.7-1.6,1.1-2.7,1.1s-1.9-0.4-2.7-1.1C251.6,31,251.2,30.2,251.2,29.2L251.2,29.2z M262.7,72.1
	c0-0.6,0.2-1.3,0.6-1.9c0.4-0.6,0.9-0.9,1.5-0.9c0.4,0,1,0.3,1.7,0.9c0.7,0.6,1.8,1.2,3.2,1.7c1.4,0.6,3,0.8,4.9,0.8
	c2.5,0,4.3-0.4,5.4-1.3c1.1-0.9,1.7-2,1.7-3.3c0-1.6-0.6-2.9-1.9-3.8c-1.2-1-2.7-1.7-4.5-2.2c-1.8-0.5-3.6-1-5.3-1.6
	c-1.8-0.6-3.3-1.6-4.5-2.9c-1.2-1.4-1.9-3.2-1.9-5.4c0-2.8,1-5.2,3-7.2c2-2,5-3,9.1-3c2.6,0,5,0.4,7.2,1.2c2.2,0.8,3.3,1.7,3.3,2.7
	c0,0.6-0.2,1.2-0.7,2c-0.5,0.7-1,1.1-1.7,1.1c-0.2,0-1.1-0.4-2.8-1.1c-1.7-0.7-3.4-1.1-5.1-1.1c-2.3,0-4,0.5-5.1,1.6
	c-1.1,1.1-1.7,2.2-1.7,3.6c0,1.4,0.6,2.4,1.9,3.2c1.2,0.8,2.8,1.4,4.6,1.8s3.6,1,5.4,1.6c1.8,0.6,3.3,1.7,4.5,3.3
	c1.2,1.5,1.9,3.5,1.9,6c0,3-1.1,5.4-3.3,7.2s-5.2,2.6-9.1,2.6c-3.4,0-6.2-0.6-8.6-1.8C263.9,74.6,262.7,73.4,262.7,72.1L262.7,72.1z
	"/>
</svg>
